<svg width="18" height="17" viewBox="0 0 18 17" fill="none" xmlns="http://www.w3.org/2000/svg">
<path d="M3.51868 10.2923L5.92818 7.88285L7.93163 9.8863L10.1678 7.65016L8.8978 6.38021H12.4395V9.92185L11.1695 8.65188L7.93163 11.8897L5.92818 9.8863L4.17565 11.6388C5.19087 13.1656 6.92681 14.1719 8.8978 14.1719C12.0274 14.1719 14.5645 11.6348 14.5645 8.50519C14.5645 5.37559 12.0274 2.83854 8.8978 2.83854C5.76817 2.83854 3.23112 5.37559 3.23112 8.50519C3.23112 9.12965 3.33212 9.73046 3.51868 10.2923ZM2.42929 11.396L2.42211 11.3889L2.42485 11.3861C2.03253 10.506 1.81445 9.53107 1.81445 8.50519C1.81445 4.59319 4.98577 1.42188 8.8978 1.42188C12.8098 1.42188 15.9811 4.59319 15.9811 8.50519C15.9811 12.4172 12.8098 15.5885 8.8978 15.5885C6.01548 15.5885 3.53526 13.867 2.42929 11.396Z" fill="white"/>
</svg>
