<svg width="14" height="15" viewBox="0 0 14 15" fill="none" xmlns="http://www.w3.org/2000/svg">
<path fill-rule="evenodd" clip-rule="evenodd" d="M8.27938 13.9369C7.92595 13.9369 7.6394 13.6634 7.6394 13.3259V9.04907C7.6394 8.71166 7.92595 8.43809 8.27938 8.43809H12.7592C13.1127 8.43809 13.3992 8.71166 13.3992 9.04907V13.3259C13.3992 13.6634 13.1127 13.9369 12.7592 13.9369H8.27938ZM8.91936 12.7194H12.1193V9.66446H8.91936V12.7194ZM1.23959 13.9369C0.886163 13.9369 0.599609 13.6634 0.599609 13.3259V9.04907C0.599609 8.71166 0.886163 8.43809 1.23959 8.43809H5.71946C6.07288 8.43809 6.35944 8.71166 6.35944 9.04907V13.3259C6.35944 13.6634 6.07288 13.9369 5.71946 13.9369H1.23959ZM1.87957 12.7194H5.07947V9.66446H1.87957V12.7194ZM8.27938 7.21759C7.92595 7.21759 7.6394 6.94402 7.6394 6.60661V2.32973C7.6394 1.99232 7.92595 1.71875 8.27938 1.71875H12.7592C13.1127 1.71875 13.3992 1.99232 13.3992 2.32973V6.60661C13.3992 6.94402 13.1127 7.21759 12.7592 7.21759H8.27938ZM8.91936 5.99269H12.1193V2.93778H8.91936V5.99269ZM1.23959 7.21759C0.886163 7.21759 0.599609 6.94402 0.599609 6.60661V2.32973C0.599609 1.99232 0.886163 1.71875 1.23959 1.71875H5.71946C6.07288 1.71875 6.35944 1.99232 6.35944 2.32973V6.60661C6.35944 6.94402 6.07288 7.21759 5.71946 7.21759H1.23959ZM1.87957 5.99269H5.07947V2.93778H1.87957V5.99269Z" fill="white"/>
</svg>
