<svg width="30" height="30" viewBox="0 0 30 30" fill="none" xmlns="http://www.w3.org/2000/svg">
<rect width="30" height="30" rx="15" fill="#00DCC6" fill-opacity="0.2"/>
<path d="M12.7843 7.40625C12.2525 7.40625 11.898 7.71005 11.898 8.16574V21.8366C11.898 22.2923 12.2525 22.5961 12.7843 22.5961C13.316 22.5961 13.6705 22.2923 13.6705 21.8366V8.16574C13.6705 7.71005 13.316 7.40625 12.7843 7.40625ZM8.35304 15.0012C7.82129 15.0012 7.4668 15.305 7.4668 15.7607V21.8366C7.4668 22.2923 7.82129 22.5961 8.35304 22.5961C8.88479 22.5961 9.23928 22.2923 9.23928 21.8366V15.7607C9.23928 15.305 8.88479 15.0012 8.35304 15.0012ZM17.2155 11.9632C16.6837 11.9632 16.3292 12.267 16.3292 12.7227V21.8366C16.3292 22.2923 16.6837 22.5961 17.2155 22.5961C17.7472 22.5961 18.1017 22.2923 18.1017 21.8366V12.7227C18.1017 12.267 17.7472 11.9632 17.2155 11.9632ZM21.6467 18.0392C21.1149 18.0392 20.7604 18.343 20.7604 18.7987V21.8366C20.7604 22.2923 21.1149 22.5961 21.6467 22.5961C22.1784 22.5961 22.5329 22.2923 22.5329 21.8366V18.7987C22.5329 18.343 22.1784 18.0392 21.6467 18.0392Z" fill="#00DCC6"/>
</svg>
