<svg width="14" height="13" viewBox="0 0 14 13" fill="none" xmlns="http://www.w3.org/2000/svg">
<path d="M5.48277 0C5.02394 0 4.71806 0.26 4.71806 0.65V12.35C4.71806 12.74 5.02394 13 5.48277 13C5.94159 13 6.24747 12.74 6.24747 12.35V0.65C6.24747 0.26 5.94159 0 5.48277 0ZM1.65924 6.5C1.20041 6.5 0.894531 6.76 0.894531 7.15V12.35C0.894531 12.74 1.20041 13 1.65924 13C2.11806 13 2.42394 12.74 2.42394 12.35V7.15C2.42394 6.76 2.11806 6.5 1.65924 6.5ZM9.3063 3.9C8.84747 3.9 8.54159 4.16 8.54159 4.55V12.35C8.54159 12.74 8.84747 13 9.3063 13C9.76512 13 10.071 12.74 10.071 12.35V4.55C10.071 4.16 9.76512 3.9 9.3063 3.9ZM13.1298 9.1C12.671 9.1 12.3651 9.36 12.3651 9.75V12.35C12.3651 12.74 12.671 13 13.1298 13C13.5886 13 13.8945 12.74 13.8945 12.35V9.75C13.8945 9.36 13.5886 9.1 13.1298 9.1Z" fill="white"/>
</svg>
