<svg width="17" height="11" viewBox="0 0 17 11" fill="none" xmlns="http://www.w3.org/2000/svg">
<path fill-rule="evenodd" clip-rule="evenodd" d="M2.32393 8.36244C1.76679 7.81571 1.26432 7.22444 0.822643 6.59572C0.632443 6.32983 0.457092 6.05529 0.297245 5.77316C0.203002 5.60103 0.203002 5.39838 0.297245 5.22622C0.457011 4.94426 0.632361 4.66992 0.822643 4.4043C1.26432 3.77558 1.76671 3.18431 2.32385 2.63758C4.00106 0.997345 5.97292 0 8.22693 0C10.4809 0 12.4528 0.997942 14.1292 2.63756C14.686 3.18433 15.1882 3.7756 15.6297 4.40428C15.8204 4.66989 15.996 4.94422 16.1559 5.22624C16.2501 5.39838 16.2501 5.60103 16.1559 5.77316C15.9959 6.05531 15.8203 6.32985 15.6298 6.59572C15.1882 7.22438 14.686 7.81565 14.1291 8.36242C12.4527 10.0027 10.4802 11 8.22693 11C5.97365 11 4.00171 10.0021 2.32393 8.36244ZM3.29734 3.4809C2.79495 3.97431 2.34193 4.50791 1.94374 5.07529C1.83481 5.2293 1.73852 5.37473 1.65432 5.50735C1.73852 5.64056 1.83481 5.7848 1.94374 5.9394C2.34185 6.50657 2.79487 7.03997 3.29726 7.53316C4.74453 8.94912 6.39751 9.78512 8.22706 9.78512C10.0566 9.78512 11.7089 8.94912 13.1574 7.53318C13.6595 7.0398 14.1123 6.50642 14.5105 5.9394C14.6193 5.7848 14.7156 5.63996 14.7998 5.50735C14.7156 5.37413 14.6193 5.2293 14.5104 5.07529C14.1123 4.50804 13.6595 3.97446 13.1574 3.4809C11.7096 2.06556 10.0573 1.22957 8.22706 1.22957C6.39685 1.22957 4.74518 2.06557 3.29799 3.4809H3.29734ZM5.56065 5.49831C5.56473 4.15298 6.76011 3.06496 8.2317 3.06731C9.70321 3.06964 10.8945 4.16144 10.8935 5.50681C10.8924 6.85216 9.69937 7.94238 8.22779 7.94275C6.75359 7.93941 5.56057 6.84597 5.56057 5.49831H5.56065ZM6.8913 5.49265C6.89317 6.1652 7.4903 6.70932 8.22597 6.70876C8.96156 6.7082 9.5577 6.16315 9.55835 5.49062C9.55901 4.81808 8.96376 4.27213 8.22817 4.27043C7.87347 4.27028 7.5333 4.39897 7.28247 4.62821C7.03156 4.85743 6.89065 5.16839 6.89065 5.49265H6.8913Z" fill="white"/>
</svg>
