<svg width="12" height="13" viewBox="0 0 12 13" fill="none" xmlns="http://www.w3.org/2000/svg">
<g clip-path="url(#clip0_3906_2248)">
<path d="M0 1.5C0 1.23478 0.0790178 0.98043 0.21967 0.792893C0.360322 0.605357 0.551088 0.5 0.75 0.5H1.5C1.69891 0.5 1.88968 0.605357 2.03033 0.792893C2.17098 0.98043 2.25 1.23478 2.25 1.5C2.25 1.76522 2.17098 2.01957 2.03033 2.20711C1.88968 2.39464 1.69891 2.5 1.5 2.5H0.75C0.551088 2.5 0.360322 2.39464 0.21967 2.20711C0.0790178 2.01957 0 1.76522 0 1.5ZM3.75 1.5C3.75 1.23478 3.82902 0.98043 3.96967 0.792893C4.11032 0.605357 4.30109 0.5 4.5 0.5H11.25C11.4489 0.5 11.6397 0.605357 11.7803 0.792893C11.921 0.98043 12 1.23478 12 1.5C12 1.76522 11.921 2.01957 11.7803 2.20711C11.6397 2.39464 11.4489 2.5 11.25 2.5H4.5C4.30109 2.5 4.11032 2.39464 3.96967 2.20711C3.82902 2.01957 3.75 1.76522 3.75 1.5ZM0 6.5C0 6.23478 0.0790178 5.98043 0.21967 5.79289C0.360322 5.60536 0.551088 5.5 0.75 5.5H1.5C1.69891 5.5 1.88968 5.60536 2.03033 5.79289C2.17098 5.98043 2.25 6.23478 2.25 6.5C2.25 6.76522 2.17098 7.01957 2.03033 7.20711C1.88968 7.39464 1.69891 7.5 1.5 7.5H0.75C0.551088 7.5 0.360322 7.39464 0.21967 7.20711C0.0790178 7.01957 0 6.76522 0 6.5ZM3.75 6.5C3.75 6.23478 3.82902 5.98043 3.96967 5.79289C4.11032 5.60536 4.30109 5.5 4.5 5.5H11.25C11.4489 5.5 11.6397 5.60536 11.7803 5.79289C11.921 5.98043 12 6.23478 12 6.5C12 6.76522 11.921 7.01957 11.7803 7.20711C11.6397 7.39464 11.4489 7.5 11.25 7.5H4.5C4.30109 7.5 4.11032 7.39464 3.96967 7.20711C3.82902 7.01957 3.75 6.76522 3.75 6.5ZM0 11.5C0 11.2348 0.0790178 10.9804 0.21967 10.7929C0.360322 10.6054 0.551088 10.5 0.75 10.5H1.5C1.69891 10.5 1.88968 10.6054 2.03033 10.7929C2.17098 10.9804 2.25 11.2348 2.25 11.5C2.25 11.7652 2.17098 12.0196 2.03033 12.2071C1.88968 12.3946 1.69891 12.5 1.5 12.5H0.75C0.551088 12.5 0.360322 12.3946 0.21967 12.2071C0.0790178 12.0196 0 11.7652 0 11.5ZM3.75 11.5C3.75 11.2348 3.82902 10.9804 3.96967 10.7929C4.11032 10.6054 4.30109 10.5 4.5 10.5H11.25C11.4489 10.5 11.6397 10.6054 11.7803 10.7929C11.921 10.9804 12 11.2348 12 11.5C12 11.7652 11.921 12.0196 11.7803 12.2071C11.6397 12.3946 11.4489 12.5 11.25 12.5H4.5C4.30109 12.5 4.11032 12.3946 3.96967 12.2071C3.82902 12.0196 3.75 11.7652 3.75 11.5Z" fill="white"/>
</g>
<defs>
<clipPath id="clip0_3906_2248">
<rect width="12" height="12" fill="white" transform="translate(0 0.5)"/>
</clipPath>
</defs>
</svg>
