<svg width="19" height="17" viewBox="0 0 19 17" fill="none" xmlns="http://www.w3.org/2000/svg">
<g clip-path="url(#clip0_3741_3622)">
<path d="M9.56055 14.5262L13.2728 10.8138C15.3231 8.76364 15.3231 5.4395 13.2728 3.38925C11.2226 1.339 7.89849 1.339 5.84823 3.38925C3.79798 5.4395 3.79798 8.76364 5.84823 10.8138L9.56055 14.5262ZM9.56055 16.6475L4.78758 11.8746C2.15154 9.23846 2.15154 4.96463 4.78758 2.32859C7.42362 -0.307447 11.6974 -0.307447 14.3335 2.32859C16.9696 4.96463 16.9696 9.23846 14.3335 11.8746L9.56055 16.6475ZM9.56055 8.60156C10.389 8.60156 11.0605 7.93001 11.0605 7.10156C11.0605 6.27313 10.389 5.60156 9.56055 5.60156C8.7321 5.60156 8.06055 6.27313 8.06055 7.10156C8.06055 7.93001 8.7321 8.60156 9.56055 8.60156ZM9.56055 10.1016C7.90369 10.1016 6.56055 8.75839 6.56055 7.10156C6.56055 5.44471 7.90369 4.10156 9.56055 4.10156C11.2174 4.10156 12.5605 5.44471 12.5605 7.10156C12.5605 8.75839 11.2174 10.1016 9.56055 10.1016Z" fill="white"/>
</g>
<defs>
<clipPath id="clip0_3741_3622">
<rect width="17.5" height="16.2959" fill="white" transform="translate(0.810547 0.351562)"/>
</clipPath>
</defs>
</svg>
