<svg width="17" height="17" viewBox="0 0 17 17" fill="none" xmlns="http://www.w3.org/2000/svg">
<path d="M5.39388 3.16927V13.8359H12.0605V3.16927H5.39388ZM4.72721 1.83594H12.7272C13.0954 1.83594 13.3939 2.13442 13.3939 2.5026V14.5026C13.3939 14.8708 13.0954 15.1693 12.7272 15.1693H4.72721C4.35903 15.1693 4.06055 14.8708 4.06055 14.5026V2.5026C4.06055 2.13442 4.35903 1.83594 4.72721 1.83594ZM8.72721 11.8359C9.09541 11.8359 9.39388 12.1344 9.39388 12.5026C9.39388 12.8708 9.09541 13.1693 8.72721 13.1693C8.35901 13.1693 8.06055 12.8708 8.06055 12.5026C8.06055 12.1344 8.35901 11.8359 8.72721 11.8359Z" fill="white"/>
</svg>
