<svg width="23" height="24" viewBox="0 0 23 24" fill="none" xmlns="http://www.w3.org/2000/svg">
<g clip-path="url(#clip0_4087_24641)">
<path d="M7.66602 13.4401H15.3327M7.66602 8.64844H11.4993" stroke="#0E121B" stroke-width="2" stroke-linecap="round" stroke-linejoin="round"/>
<path d="M5.84404 18.7109C4.5981 18.5884 3.66473 18.2141 3.03877 17.5882C1.91602 16.4655 1.91602 14.6583 1.91602 11.0443V10.5651C1.91602 6.951 1.91602 5.14396 3.03877 4.02119C4.16153 2.89844 5.96858 2.89844 9.58268 2.89844H13.416C17.0301 2.89844 18.8372 2.89844 19.9599 4.02119C21.0827 5.14396 21.0827 6.951 21.0827 10.5651V11.0443C21.0827 14.6583 21.0827 16.4655 19.9599 17.5882C18.8372 18.7109 17.0301 18.7109 13.416 18.7109C12.8789 18.7229 12.4511 18.7637 12.0308 18.8595C10.8824 19.1239 9.81891 19.7115 8.76797 20.2241C7.2705 20.9542 6.52177 21.3193 6.05189 20.9775C5.15297 20.308 6.03162 18.2336 6.22852 17.2734" stroke="#0E121B" stroke-width="2" stroke-linecap="round"/>
</g>
<defs>
<clipPath id="clip0_4087_24641">
<rect width="23" height="23" fill="white" transform="translate(0 0.5)"/>
</clipPath>
</defs>
</svg>
