<svg width="24" height="32" viewBox="0 0 24 32" fill="none" xmlns="http://www.w3.org/2000/svg">
<path d="M16.75 3C17.0638 3 17.3445 3.1954 17.4534 3.48972L17.7113 4.18675C18.0733 5.1651 18.1888 5.43091 18.3789 5.62106C18.5691 5.81121 18.8349 5.92667 19.8133 6.28869L20.5103 6.54661C20.8046 6.65552 21 6.93617 21 7.25C21 7.56383 20.8046 7.84448 20.5103 7.95339L19.8133 8.21131C18.8349 8.57333 18.5691 8.68879 18.3789 8.87894C18.1888 9.06909 18.0733 9.3349 17.7113 10.3133L17.4534 11.0103C17.3445 11.3046 17.0638 11.5 16.75 11.5C16.4362 11.5 16.1555 11.3046 16.0466 11.0103L15.7887 10.3133C15.4267 9.3349 15.3112 9.06909 15.1211 8.87894C14.9309 8.68879 14.6651 8.57333 13.6867 8.21131L12.9897 7.95339C12.6954 7.84448 12.5 7.56383 12.5 7.25C12.5 6.93617 12.6954 6.65552 12.9897 6.54661L13.6867 6.28869C14.6651 5.92667 14.9309 5.81121 15.1211 5.62106C15.3112 5.43091 15.4267 5.1651 15.7887 4.18675L16.0466 3.48972C16.1555 3.1954 16.4362 3 16.75 3Z" fill="white"/>
<path fill-rule="evenodd" clip-rule="evenodd" d="M3.5 19.2778C3.5 14.9822 6.98223 11.5 11.2778 11.5C11.8147 11.5 12.25 11.9353 12.25 12.4722C12.25 13.0092 11.8147 13.4444 11.2778 13.4444C8.05611 13.4444 5.44444 16.0561 5.44444 19.2778C5.44444 22.4995 8.05611 25.1112 11.2778 25.1112C14.4995 25.1112 17.1111 22.4995 17.1111 19.2778C17.1111 18.7409 17.5464 18.3056 18.0833 18.3056C18.6203 18.3056 19.0556 18.7409 19.0556 19.2778C19.0556 21.0752 18.4459 22.7301 17.4221 24.0472L20.7153 27.3403C21.0949 27.72 21.0949 28.3356 20.7153 28.7153C20.3356 29.095 19.72 29.095 19.3403 28.7153L16.0472 25.4221C14.7301 26.446 13.0752 27.0556 11.2778 27.0556C6.98223 27.0556 3.5 23.5734 3.5 19.2778Z" fill="white"/>
</svg>
