<svg width="19" height="20" viewBox="0 0 19 20" fill="none" xmlns="http://www.w3.org/2000/svg">
<path d="M14.25 0C14.5638 0 14.8445 0.1954 14.9534 0.48972L15.2113 1.18675C15.5733 2.1651 15.6888 2.43091 15.8789 2.62106C16.0691 2.81121 16.3349 2.92667 17.3133 3.28869L18.0103 3.54661C18.3046 3.65552 18.5 3.93617 18.5 4.25C18.5 4.56383 18.3046 4.84448 18.0103 4.95339L17.3133 5.21131C16.3349 5.57333 16.0691 5.68879 15.8789 5.87894C15.6888 6.06909 15.5733 6.3349 15.2113 7.31327L14.9534 8.01027C14.8445 8.30457 14.5638 8.49997 14.25 8.49997C13.9362 8.49997 13.6555 8.30457 13.5466 8.01027L13.2887 7.31327C12.9267 6.3349 12.8112 6.06909 12.6211 5.87894C12.4309 5.68879 12.1651 5.57333 11.1867 5.21131L10.4897 4.95339C10.1954 4.84448 10 4.56383 10 4.25C10 3.93617 10.1954 3.65552 10.4897 3.54661L11.1867 3.28869C12.1651 2.92667 12.4309 2.81121 12.6211 2.62106C12.8112 2.43091 12.9267 2.1651 13.2887 1.18675L13.5466 0.48972C13.6555 0.1954 13.9362 0 14.25 0Z" fill="white"/>
<path fill-rule="evenodd" clip-rule="evenodd" d="M0.5 10.0278C0.5 5.73224 3.98223 2.25 8.27778 2.25C8.81468 2.25 9.24998 2.68528 9.24998 3.22223C9.24998 3.75917 8.81468 4.19445 8.27778 4.19445C5.05611 4.19445 2.44444 6.80613 2.44444 10.0278C2.44444 13.2495 5.05611 15.8612 8.27778 15.8612C11.4995 15.8612 14.1111 13.2495 14.1111 10.0278C14.1111 9.49087 14.5464 9.05557 15.0833 9.05557C15.6203 9.05557 16.0556 9.49087 16.0556 10.0278C16.0556 11.8252 15.4459 13.4801 14.4221 14.7972L17.7153 18.0903C18.0949 18.47 18.0949 19.0856 17.7153 19.4653C17.3356 19.845 16.72 19.845 16.3403 19.4653L13.0472 16.1721C11.7301 17.196 10.0752 17.8056 8.27778 17.8056C3.98223 17.8056 0.5 14.3234 0.5 10.0278Z" fill="white"/>
</svg>
