<svg width="23" height="24" viewBox="0 0 23 24" fill="none" xmlns="http://www.w3.org/2000/svg">
<g clip-path="url(#clip0_4087_24649)">
<path d="M14.8548 12.0026C14.8548 13.8551 13.3531 15.3568 11.5007 15.3568C9.64819 15.3568 8.14648 13.8551 8.14648 12.0026C8.14648 10.1501 9.64819 8.64844 11.5007 8.64844C13.3531 8.64844 14.8548 10.1501 14.8548 12.0026Z" stroke="#0E121B" stroke-width="2"/>
<path d="M20.1349 14.0102C20.635 13.8753 20.8852 13.8079 20.9839 13.6789C21.0827 13.55 21.0827 13.3425 21.0827 12.9276V11.0745C21.0827 10.6597 21.0827 10.4522 20.9839 10.3233C20.8851 10.1943 20.635 10.1268 20.1349 9.99196C18.2658 9.48789 17.0959 7.53377 17.5783 5.67686C17.711 5.16619 17.7773 4.91086 17.7139 4.7611C17.6506 4.61134 17.4689 4.50815 17.1053 4.30174L15.4525 3.36331C15.0958 3.16078 14.9174 3.05951 14.7574 3.08107C14.5973 3.10264 14.4167 3.28281 14.0554 3.64315C12.657 5.03824 10.3432 5.03818 8.94476 3.64306C8.58355 3.28272 8.40295 3.10255 8.24286 3.08098C8.08278 3.05942 7.90442 3.16068 7.54769 3.36322L5.89486 4.30166C5.53136 4.50804 5.3496 4.61124 5.28626 4.76097C5.22292 4.91071 5.28922 5.16607 5.42184 5.6768C5.90399 7.53376 4.73325 9.48793 2.86383 9.99198C2.36367 10.1268 2.1136 10.1943 2.0148 10.3232C1.91602 10.4522 1.91602 10.6597 1.91602 11.0745V12.9276C1.91602 13.3425 1.91602 13.55 2.0148 13.6789C2.11358 13.8079 2.36366 13.8753 2.86383 14.0102C4.73294 14.5143 5.90276 16.4684 5.42037 18.3253C5.28771 18.836 5.22137 19.0913 5.28471 19.241C5.34806 19.3908 5.52981 19.494 5.89334 19.7004L7.54618 20.6389C7.90293 20.8414 8.0813 20.9427 8.2414 20.9211C8.4015 20.8995 8.58207 20.7193 8.9432 20.3589C10.3424 18.9627 12.6578 18.9627 14.057 20.3588C14.4181 20.7193 14.5987 20.8994 14.7588 20.921C14.9189 20.9426 15.0973 20.8413 15.454 20.6388L17.1068 19.7003C17.4704 19.494 17.6522 19.3907 17.7155 19.241C17.7788 19.0912 17.7125 18.8359 17.5798 18.3252C17.0972 16.4684 18.266 14.5144 20.1349 14.0102Z" stroke="#0E121B" stroke-width="2" stroke-linecap="round"/>
</g>
<defs>
<clipPath id="clip0_4087_24649">
<rect width="23" height="23" fill="white" transform="translate(0 0.5)"/>
</clipPath>
</defs>
</svg>
